<svg xmlns="http://www.w3.org/2000/svg" version="1.1" xmlns:xlink="http://www.w3.org/1999/xlink" xmlns:svgjs="http://svgjs.com/svgjs" height="114.4" width="340.302001953125"><defs id="SvgjsDefs1107"></defs><g id="SvgjsG1108" rel="mainfill" name="main_text" xmlns:name="main_text" transform="translate(131.52999997138977,-168.22500305175782)" fill="#000000"><path d="M28.30 237.01L28.30 239.15Q27.30 239.15 25.43 239.36Q23.55 239.57 21.48 239.81Q19.42 240.05 17.52 240.26Q15.62 240.47 14.62 240.47Q10.40 240.47 7.88 239.43Q0.47 234.02 0.47 228.70Q0.47 228.04 0.71 226.23Q0.95 224.43 1.31 222.41Q1.66 220.39 2.02 218.66Q2.37 216.93 2.61 216.45Q4.27 212.89 8.55 210.09Q13.01 207.10 17.14 207.10Q18.33 207.10 20.04 207.33Q21.75 207.57 23.36 208.02Q24.97 208.47 26.11 209.19Q27.25 209.90 27.25 210.90Q27.25 212.89 24.02 212.89Q23.69 212.89 23.12 212.58Q22.55 212.27 21.96 211.87Q21.37 211.47 20.91 211.13Q20.46 210.80 20.32 210.80Q18.99 210.56 17.47 210.56Q16.33 210.52 14.98 211.09Q13.63 211.65 12.27 212.56Q10.92 213.46 9.73 214.55Q8.55 215.64 7.83 216.64Q6.12 219.06 6.12 227.85Q6.12 232.93 11.21 235.35Q15.48 237.34 22.51 237.29Q25.59 237.29 28.30 237.01ZM49.24 226.66L50.71 230.36L50.57 232.50L48.95 236.63Q45.86 240.28 42.26 240.28Q39.74 240.28 36.61 239.10Q32.62 237.58 31.43 235.20Q29.96 232.31 29.96 230.69Q29.96 229.74 30.39 228.65Q30.81 227.56 31.60 226.42Q32.38 225.28 33.40 224.21Q34.42 223.14 35.66 222.29Q38.41 220.39 40.97 220.39Q41.26 220.39 41.92 220.60Q42.59 220.82 43.30 221.10Q44.01 221.39 44.61 221.67Q45.20 221.96 45.34 222.20Q47.48 223.62 49.24 226.66M46.39 231.74Q46.39 230.88 45.82 229.65Q45.25 228.42 44.39 227.28Q43.54 226.14 42.54 225.31Q41.54 224.47 40.59 224.47Q39.36 224.47 38.24 225.09Q37.13 225.71 36.25 226.68Q35.37 227.66 34.85 228.89Q34.33 230.12 34.33 231.31Q34.33 232.31 34.97 233.23Q35.61 234.16 36.65 234.87Q37.70 235.58 39.03 236.01Q40.36 236.44 41.78 236.44Q42.64 236.44 43.44 235.99Q44.25 235.54 44.92 234.85Q45.58 234.16 45.98 233.33Q46.39 232.50 46.39 231.74ZM67.90 240L66.95 237.63L66.71 237.53Q63.81 241.00 60.25 241.00Q59.82 241.00 59.06 240.88Q58.30 240.76 57.52 240.59Q56.74 240.43 56.03 240.24Q55.31 240.05 55.03 239.86Q54.08 239.19 53.22 237.93Q52.37 236.68 52.23 235.73Q52.08 234.78 51.94 233.57Q51.80 232.36 51.61 230.84Q51.56 230.36 51.54 229.82Q51.51 229.27 51.51 228.61Q51.51 226.42 51.94 224.85Q52.51 222.81 53.98 222.81Q54.98 222.81 55.72 223.17Q56.45 223.52 56.45 224.05Q56.45 225.57 56.05 227.35Q55.65 229.13 55.65 231.36Q55.65 237.63 60.25 237.63Q61.11 237.63 62.06 237.08Q63.00 236.53 63.81 235.68Q64.62 234.82 65.24 233.76Q65.85 232.69 66.04 231.64Q66.04 226.14 66.19 225.80Q66.42 222.86 67.47 222.86Q67.47 222.86 68.27 223.00L70.32 223.33Q70.22 224.24 70.15 225.57Q70.08 226.90 70.08 228.65Q70.08 237.10 71.93 237.86L71.74 239.86Q69.70 243.75 68.04 243.75Q66.95 243.18 66.95 242.18Q66.95 241.38 67.90 240ZM87.03 240.09L86.89 237.63L86.65 237.53Q83.75 241.00 80.19 241.00Q79.76 241.00 79.01 240.88Q78.25 240.76 77.46 240.59Q76.68 240.43 75.97 240.24Q75.25 240.05 74.97 239.86Q74.02 239.19 73.17 237.93Q72.31 236.68 72.17 235.73Q72.03 234.78 71.88 233.57Q71.74 232.36 71.55 230.84Q71.50 230.36 71.48 229.82Q71.46 229.27 71.46 228.61Q71.46 226.42 71.88 224.85Q72.45 222.81 73.92 222.81Q74.92 222.81 75.66 223.17Q76.39 223.52 76.39 224.09Q76.39 225.85 75.97 227.66Q75.54 229.46 75.59 231.36Q75.82 237.63 80.19 237.63Q81.05 237.63 82.02 237.17Q82.99 236.72 83.85 236.01Q84.70 235.30 85.30 234.37Q85.89 233.45 86.03 232.45Q86.27 230.41 86.39 228.42Q86.51 226.42 86.60 224.52Q86.89 224.19 87.20 223.81Q87.50 223.43 87.84 222.96L90.26 223.33Q90.31 223.33 90.31 223.57Q90.31 223.81 90.31 224.09Q90.31 224.43 90.28 225.57Q90.26 226.71 90.19 228.25Q90.12 229.79 90.07 231.52Q90.02 233.26 89.95 234.80Q89.88 236.34 89.85 237.48Q89.83 238.62 89.83 238.96Q89.83 239.91 89.64 240.07Q89.45 240.24 88.55 240.24Q87.84 240.24 87.03 240.09ZM93.01 228.04Q93.01 227.37 93.58 226.42Q94.15 225.47 94.93 224.55Q95.72 223.62 96.57 222.86Q97.43 222.10 97.95 221.82Q100.85 220.25 102.36 220.34Q103.88 220.44 105.12 221.13Q106.35 221.82 106.83 221.82Q107.78 221.82 108.18 222.60Q108.58 223.38 108.70 224.66Q108.82 225.95 108.75 227.61Q108.68 229.27 108.68 231.07L108.68 235.39Q108.68 235.49 108.73 235.96Q108.77 236.44 108.85 237.03Q108.92 237.63 108.96 238.15Q109.01 238.67 109.01 238.81Q109.06 240 108.30 240Q107.92 240 107.71 239.69Q107.49 239.38 107.30 239.03Q107.11 238.67 106.90 238.36Q106.69 238.05 106.35 238.05Q106.02 238.05 105.62 238.46Q105.21 238.86 104.83 239.34Q104.45 239.81 104.05 240.21Q103.65 240.62 103.31 240.62Q102.08 240.62 100.70 240.24Q99.23 239.67 97.81 238.27Q96.38 236.87 95.27 235.11Q94.15 233.35 93.51 231.48Q92.87 229.60 93.01 228.04M97.14 228.89Q97.14 231.31 98.90 233.69Q101.04 236.58 104.26 236.58L105.31 234.49L105.31 224.71L101.89 224.57Q97.14 225.85 97.14 228.89ZM110.44 238.15Q110.86 236.63 113.76 230.36Q114.42 226.85 115.42 224.12Q116.42 221.39 117.65 219.44Q120.07 215.69 122.88 215.69Q125.15 215.69 125.82 217.78Q126.63 219.20 127.36 220.79Q128.10 222.39 128.57 224.09Q128.95 225.47 129.31 226.85Q129.67 228.23 130.05 229.55Q130.57 231.45 133.18 237.20Q133.46 238.05 133.46 238.58Q133.46 239.95 131.75 239.95Q130.47 239.95 129.52 239.03Q128.57 238.10 127.62 235.73Q127.39 235.16 126.84 233.21Q126.29 231.26 125.65 229.06Q125.01 226.85 124.42 224.90Q123.83 222.96 123.49 222.43Q123.26 221.39 122.73 221.32Q122.21 221.25 121.50 221.98Q120.79 222.72 119.98 224.17Q119.17 225.61 118.37 227.61Q118.32 227.70 117.30 230.58Q116.28 233.45 114.33 239.10Q112.86 240.28 111.58 240.28Q110.29 240.28 110.29 238.96Q110.29 238.58 110.44 238.15ZM154.21 226.66L155.68 230.36L155.54 232.50L153.93 236.63Q150.84 240.28 147.23 240.28Q144.72 240.28 141.58 239.10Q137.59 237.58 136.41 235.20Q134.94 232.31 134.94 230.69Q134.94 229.74 135.36 228.65Q135.79 227.56 136.57 226.42Q137.36 225.28 138.38 224.21Q139.40 223.14 140.63 222.29Q143.39 220.39 145.95 220.39Q146.24 220.39 146.90 220.60Q147.57 220.82 148.28 221.10Q148.99 221.39 149.58 221.67Q150.18 221.96 150.32 222.20Q152.46 223.62 154.21 226.66M151.36 231.74Q151.36 230.88 150.79 229.65Q150.22 228.42 149.37 227.28Q148.51 226.14 147.52 225.31Q146.52 224.47 145.57 224.47Q144.34 224.47 143.22 225.09Q142.10 225.71 141.23 226.68Q140.35 227.66 139.83 228.89Q139.30 230.12 139.30 231.31Q139.30 232.31 139.94 233.23Q140.59 234.16 141.63 234.87Q142.67 235.58 144.00 236.01Q145.33 236.44 146.76 236.44Q147.61 236.44 148.42 235.99Q149.23 235.54 149.89 234.85Q150.56 234.16 150.96 233.33Q151.36 232.50 151.36 231.74ZM157.25 227.85L157.44 220.34Q158.20 219.92 158.68 219.92Q160.15 219.92 160.15 224.90Q160.15 225.76 160.10 226.90Q160.05 228.04 160.05 228.23Q160.53 229.70 162.90 229.70Q165.56 229.70 165.99 228.32Q166.03 227.13 166.11 225.99Q166.18 224.85 166.22 223.67Q166.51 219.58 167.70 219.58Q168.22 219.58 168.76 219.92Q169.31 220.25 169.31 220.53Q169.31 220.72 169.29 221.10Q169.26 221.48 169.26 221.72Q169.26 221.82 169.29 222.10Q169.31 222.39 169.36 222.81L169.36 223.52Q169.36 224.14 169.26 225.73Q169.17 227.32 169.07 229.10Q168.98 230.88 168.88 232.50Q168.79 234.11 168.79 234.73L168.79 237.86Q168.79 239.05 168.60 239.43Q168.08 240.38 167.46 240.40Q166.84 240.43 166.32 239.83Q165.80 239.24 165.44 238.20Q165.08 237.15 165.08 235.96Q165.08 235.73 165.08 235.42Q165.08 235.11 165.13 234.73L165.13 233.54Q165.13 232.36 164.94 232.02L162.43 232.17Q160.05 231.88 158.87 231.00Q157.68 230.12 157.25 227.85ZM190.63 239.19L189.68 241.14Q189.30 241.14 188.63 240.85Q187.97 240.57 187.26 240.19Q186.55 239.81 185.95 239.36Q185.36 238.91 185.17 238.62Q179.85 230.65 178.90 230.65Q178.09 230.65 177.60 231.19Q177.10 231.74 176.76 232.69Q176.43 233.64 176.19 234.92Q175.96 236.20 175.77 237.63Q175.44 240.09 174.87 240.09L173.68 240.09Q173.01 238.67 172.87 237.25Q172.16 230.22 172.16 220.20Q172.16 218.63 173.58 218.68Q174.30 218.68 174.84 219.56Q175.39 220.44 175.79 221.67Q176.19 222.91 176.43 224.19Q176.67 225.47 176.72 226.28Q176.72 226.23 176.69 226.49Q176.67 226.75 176.67 227.09Q176.67 227.42 176.72 227.70Q176.76 227.99 176.86 227.99Q177.05 227.80 177.79 226.59Q178.52 225.38 179.45 223.95Q180.37 222.53 181.30 221.27Q182.22 220.01 182.89 219.68Q182.98 219.68 183.53 219.20Q184.08 218.73 184.31 218.73Q185.55 218.73 186.40 219.87L186.40 221.06L184.50 222.48Q181.37 226.52 181.42 227.47Q181.42 227.75 182.30 228.96Q183.17 230.17 184.50 231.88Q185.83 233.59 187.45 235.54Q189.06 237.48 190.63 239.19ZM192.77 228.04Q192.77 227.37 193.33 226.42Q193.90 225.47 194.69 224.55Q195.47 223.62 196.33 222.86Q197.18 222.10 197.70 221.82Q200.60 220.25 202.12 220.34Q203.64 220.44 204.87 221.13Q206.11 221.82 206.58 221.82Q207.53 221.82 207.93 222.60Q208.34 223.38 208.46 224.66Q208.58 225.95 208.50 227.61Q208.43 229.27 208.43 231.07L208.43 235.39Q208.43 235.49 208.48 235.96Q208.53 236.44 208.60 237.03Q208.67 237.63 208.72 238.15Q208.77 238.67 208.77 238.81Q208.81 240 208.05 240Q207.67 240 207.46 239.69Q207.25 239.38 207.06 239.03Q206.87 238.67 206.65 238.36Q206.44 238.05 206.11 238.05Q205.77 238.05 205.37 238.46Q204.97 238.86 204.59 239.34Q204.21 239.81 203.80 240.21Q203.40 240.62 203.07 240.62Q201.83 240.62 200.46 240.24Q198.98 239.67 197.56 238.27Q196.14 236.87 195.02 235.11Q193.90 233.35 193.26 231.48Q192.62 229.60 192.77 228.04M196.90 228.89Q196.90 231.31 198.65 233.69Q200.79 236.58 204.02 236.58L205.06 234.49L205.06 224.71L201.64 224.57Q196.90 225.85 196.90 228.89Z" fill="#000000" style="fill: rgb(0, 0, 0);"></path></g><g id="SvgjsG1109" rel="mainfill" name="symbol" xmlns:name="symbol_mainfill" transform="translate(-7.1072710990905765,-7.800000000000001) scale(1.3)" fill="#E27A3F"><title>Path-7</title><desc>Created with Sketch.</desc><g stroke="none" stroke-width="1" fill="#E27A3F" fill-rule="evenodd"><path d="M49.8218435,28.0156452 L36.8809818,40.6888896 L36.9191358,91.7620651 C36.9200591,92.9980423 35.9299308,93.9999997 34.7081229,93.9999995 L27.3328526,93.9999984 C26.1108206,93.9999982 25.1201679,92.9980732 25.1201679,91.7632514 L25.1201679,65.0152604 L23.6252545,65.0152604 L23.6252545,91.7632514 C23.6252545,92.9985725 22.6345913,93.9999983 21.4111938,93.9999985 L13.9196612,94 C12.6968692,94.0000003 11.7039879,92.9986424 11.7019972,91.7624737 L11.6571351,63.9036898 L7.68001432,63.9036899 C6.45787295,63.9036899 5.4671316,62.9025888 5.4671316,61.666741 L5.46713161,35.8337904 C5.46713161,32.1272313 8.43934017,29.1224713 12.105774,29.1224713 C12.105774,29.1224713 34.6007238,29.1229054 34.6265835,29.1237666 L42.795088,21.3991585 L49.8218435,28.0156452 L49.8218435,28.0156452 Z M58.0132437,19.9916265 C58.834959,19.1273729 58.8130888,17.7788599 57.9517131,16.9411762 L54.3983182,13.4855168 C53.5171726,12.628607 52.0797472,12.6190501 51.1869118,13.4633668 L51.1336632,13.5137217 L58.0132437,19.9916265 L58.0132437,19.9916265 Z M23.0171861,27.6793845 C28.9403538,27.6793845 33.7420299,22.826289 33.7420299,16.8396922 C33.7420299,10.8530955 28.9403538,6 23.0171861,6 C17.0940184,6 12.2923422,10.8530955 12.2923422,16.8396922 C12.2923422,22.826289 17.0940184,27.6793845 23.0171861,27.6793845 L23.0171861,27.6793845 Z M88.8284891,29.1224713 C92.494923,29.1224713 95.4671316,32.1272313 95.4671316,35.8337904 L95.4671316,61.666741 C95.4671316,62.9025888 94.4763902,63.9036899 93.2542488,63.9036899 L89.2771281,63.9036898 L89.2322659,91.7624737 C89.2302753,92.9986424 88.2373939,94.0000003 87.014602,94 L79.5230693,93.9999985 C78.2996719,93.9999983 77.3090086,92.9985725 77.3090086,91.7632514 L77.3090086,65.0152604 L75.8140953,65.0152604 L75.8140953,91.7632514 C75.8140953,92.9980732 74.8234426,93.9999982 73.6014106,93.9999984 L66.2261404,93.9999995 C65.0043324,93.9999997 64.0142041,92.9980423 64.0151275,91.7620651 L64.0151282,40.3970231 L42.9778223,20.0492714 C42.0987449,19.1883734 42.1017747,17.797726 42.9825501,16.9411762 L46.5359449,13.4855168 C47.4170906,12.628607 48.854516,12.6190501 49.7473515,13.4633668 L66.3076797,29.1237666 C66.3335395,29.1229054 88.8284891,29.1224713 88.8284891,29.1224713 L88.8284891,29.1224713 Z M77.9170771,27.6793845 C71.9939094,27.6793845 67.1922332,22.826289 67.1922332,16.8396922 C67.1922332,10.8530955 71.9939094,6 77.9170771,6 C83.8402448,6 88.641921,10.8530955 88.641921,16.8396922 C88.641921,22.826289 83.8402448,27.6793845 77.9170771,27.6793845 L77.9170771,27.6793845 Z" fill-opacity="1.0" fill="#E27A3F" style="fill: rgb(226, 122, 63);"></path></g></g></svg>