<svg xmlns="http://www.w3.org/2000/svg" version="1.1" xmlns:xlink="http://www.w3.org/1999/xlink" xmlns:svgjs="http://svgjs.com/svgjs" height="90.00179901123047" width="308.01300659179685"><defs id="SvgjsDefs3465"></defs><g id="SvgjsG3466" rel="mainfill" name="main_text" xmlns:name="main_text" transform="translate(100.3430010318756,-181.92910079956056)" fill="#000000"><path d="M18.51 229.60L23.22 230.26Q21.77 240.57 13.10 240.57Q7.45 240.57 4.69 236.24Q1.93 231.91 1.93 224.66Q1.93 216.85 4.85 212.68Q7.77 208.51 13.28 208.51Q21.80 208.51 23.27 219.07L18.51 219.77Q17.74 212.74 13.30 212.74Q7.36 212.74 7.36 224.96Q7.36 236.33 13.30 236.33Q15.68 236.33 16.84 234.60Q18.01 232.86 18.51 229.60ZM44.16 228.33Q44.16 240.57 35.09 240.57Q30.93 240.57 28.54 237.61Q26.15 234.65 26.15 228.56Q26.15 216.57 35.21 216.57Q39.33 216.57 41.74 219.50Q44.16 222.42 44.16 228.33M39.15 228.56Q39.15 223.73 38.07 221.93Q37.00 220.13 35.16 220.13Q31.17 220.13 31.17 228.56Q31.17 232.86 32.10 234.93Q33.03 236.99 35.16 236.99Q37.27 236.99 38.21 234.89Q39.15 232.80 39.15 228.56ZM48.62 240L48.62 217.12L53.36 217.12L53.36 236.42L59.63 236.42L59.63 217.12L64.37 217.12L64.37 236.42L67.24 236.42L67.24 245.35L64.07 245.35L63.53 240L48.62 240ZM74.86 237.67L74.86 240L70.12 240L70.12 217.12L74.86 217.12L74.86 227.04Q74.86 230.69 74.70 231.78Q75.69 229.62 77.10 227.38L81.74 220.09L81.74 217.12L86.48 217.12L86.48 240L81.74 240L81.74 230.64Q81.74 226.86 81.90 225.91Q80.93 228.35 79.25 230.94L74.86 237.67ZM96.29 223.60L91.73 223.03Q92.19 219.97 94.56 218.27Q96.92 216.57 100.37 216.57Q103.45 216.57 105.29 217.81Q107.14 219.04 107.62 220.74Q108.09 222.44 108.09 225.89L108.09 233.68Q108.09 238.41 108.50 240L104.04 240Q103.74 238.75 103.74 236.19Q101.59 240.57 97.31 240.57Q94.41 240.57 92.65 238.79Q90.90 237.01 90.90 233.95Q90.90 230.21 93.47 228.04Q96.04 225.86 102.38 225.86Q102.70 225.86 103.38 225.89L103.38 224.96Q103.38 222.51 102.64 221.26Q101.91 220.02 100.00 220.02Q96.90 220.02 96.29 223.60M103.38 228.85Q102.47 228.76 102.00 228.76Q95.84 228.76 95.84 233.59Q95.84 237.10 98.89 237.10Q100.68 237.10 102.03 235.20Q103.38 233.29 103.38 229.96L103.38 228.85ZM110.04 240L116.38 217.12L121.87 217.12L127.76 240L122.80 240L118.74 221.74L114.28 240L110.04 240ZM146.88 228.33Q146.88 240.57 137.82 240.57Q133.65 240.57 131.26 237.61Q128.87 234.65 128.87 228.56Q128.87 216.57 137.93 216.57Q142.05 216.57 144.47 219.50Q146.88 222.42 146.88 228.33M141.87 228.56Q141.87 223.73 140.80 221.93Q139.72 220.13 137.89 220.13Q133.90 220.13 133.90 228.56Q133.90 232.86 134.83 234.93Q135.76 236.99 137.89 236.99Q139.99 236.99 140.93 234.89Q141.87 232.80 141.87 228.56ZM161.15 240L161.15 231.25Q159.36 232.89 156.53 232.89Q154.15 232.89 152.42 231.46Q150.69 230.03 150.69 226.54L150.69 217.12L155.42 217.12L155.42 225.79Q155.42 229.31 158.07 229.31Q159.91 229.31 161.15 228.13L161.15 217.12L165.89 217.12L165.89 240L161.15 240ZM171.46 217.12L176.20 217.12L176.20 227.36L183.58 217.12L188.25 217.12L182.34 225.02L188.91 240L183.81 240L179.23 228.54L176.20 232.73L176.20 240L171.46 240L171.46 217.12ZM195.45 223.60L190.90 223.03Q191.35 219.97 193.72 218.27Q196.09 216.57 199.53 216.57Q202.61 216.57 204.46 217.81Q206.31 219.04 206.78 220.74Q207.26 222.44 207.26 225.89L207.26 233.68Q207.26 238.41 207.67 240L203.20 240Q202.91 238.75 202.91 236.19Q200.76 240.57 196.47 240.57Q193.57 240.57 191.82 238.79Q190.06 237.01 190.06 233.95Q190.06 230.21 192.63 228.04Q195.21 225.86 201.55 225.86Q201.87 225.86 202.55 225.89L202.55 224.96Q202.55 222.51 201.81 221.26Q201.07 220.02 199.17 220.02Q196.07 220.02 195.45 223.60M202.55 228.85Q201.64 228.76 201.16 228.76Q195.00 228.76 195.00 233.59Q195.00 237.10 198.06 237.10Q199.85 237.10 201.20 235.20Q202.55 233.29 202.55 229.96L202.55 228.85Z" fill="#000000" style="fill: rgb(0, 0, 0);"></path></g><g id="SvgjsG3467" rel="mainfill" name="symbol" xmlns:name="symbol_mainfill" transform="translate(-0.9000000000000142,-0.2546999931335449) scale(0.9)" fill="#000000"><path d="M94.273,62.561l-4.411-26.07c1.115-0.836,1.847-2.156,1.847-3.657c0-2.531-2.052-4.583-4.584-4.583  c-0.617,0-1.205,0.126-1.742,0.348L72.105,14.91c1.107-0.986,1.819-2.407,1.819-4.007c0-2.971-2.405-5.379-5.379-5.379  c-1.854,0-3.487,0.939-4.457,2.368L42.86,3.369c-0.359-1.761-1.916-3.086-3.784-3.086c-2.134,0-3.862,1.729-3.862,3.862  c0,0.676,0.19,1.304,0.496,1.857L18.896,23.405c-0.239-0.036-0.479-0.073-0.729-0.073c-2.669,0-4.833,2.164-4.833,4.834  c0,1.788,0.982,3.332,2.426,4.168L7.01,54.818c-0.223-0.031-0.445-0.068-0.677-0.068c-2.669,0-4.833,2.164-4.833,4.834  c0,2.016,1.235,3.74,2.988,4.465L4.162,87.48C2.32,88.164,1,89.921,1,92.001c0,2.67,2.164,4.834,4.833,4.834  c2.442,0,4.441-1.817,4.766-4.172l40.078-2.649c0.705,1.5,2.218,2.545,3.985,2.545c1.021,0,1.947-0.359,2.695-0.941l19.896,6.713  c0.665,1.162,1.903,1.954,3.338,1.954c2.133,0,3.862-1.729,3.862-3.862c0-0.268-0.026-0.525-0.079-0.777l9.846-24.393  c2.121-0.322,3.75-2.138,3.75-4.35C97.973,64.71,96.369,62.904,94.273,62.561z M51.657,39.797L67.333,60  c-0.463,0.561-0.812,1.205-1.024,1.918l-30.252-2.072c-0.182-0.445-0.439-0.847-0.738-1.214l11.368-18.284  c0.597,0.202,1.233,0.317,1.898,0.317C49.711,40.665,50.762,40.344,51.657,39.797z M53.641,37.81c0.324-0.537,0.558-1.133,0.7-1.763  l28.458-1.763c0.188,0.562,0.479,1.07,0.854,1.511L72.047,58.029c-0.16-0.014-0.314-0.049-0.479-0.049  c-0.711,0-1.385,0.146-2.008,0.391L53.641,37.81z M65.459,15.297c0.875,0.616,1.938,0.985,3.088,0.985  c0.373,0,0.739-0.039,1.092-0.111l13.624,14.215c-0.27,0.425-0.471,0.896-0.589,1.399l-28.312,1.762  c-0.17-0.814-0.495-1.572-0.963-2.227L65.459,15.297z M42.395,6.091l20.812,4.433c-0.01,0.128-0.039,0.25-0.039,0.379  c0,0.813,0.193,1.577,0.518,2.268L51.354,29.522c-0.681-0.362-1.44-0.594-2.249-0.664c-0.27-0.042-0.545-0.065-0.827-0.065  c-0.183,0-0.354,0.036-0.531,0.054L41.208,7.362C41.698,7.037,42.097,6.598,42.395,6.091z M37.964,7.824  c0.173,0.052,0.349,0.096,0.531,0.124l6.653,21.823c-1.042,0.72-1.799,1.796-2.151,3.043c-0.03,0.086-0.06,0.171-0.086,0.259l0,0  L22.92,27.378c-0.184-1.117-0.749-2.095-1.559-2.814L37.964,7.824z M22.583,30.117l20.178,5.65c0.224,1.291,0.865,2.436,1.782,3.295  L33.291,57.159c-0.532-0.202-1.104-0.326-1.708-0.326c-0.123,0-0.238,0.026-0.358,0.036l-10.108-24.9  C21.746,31.48,22.257,30.853,22.583,30.117z M18.184,32.997c0.218,0,0.426-0.035,0.636-0.064l10.043,24.74  c-0.918,0.627-1.589,1.569-1.904,2.663l-15.881-1.637c-0.218-1.176-0.866-2.188-1.767-2.897L18.184,32.997z M8.293,87.859  c-0.418-0.248-0.871-0.44-1.358-0.555l0.301-22.979c1.701-0.322,3.07-1.536,3.636-3.137l16.04,1.652  c0.144,0.573,0.38,1.108,0.709,1.58L8.293,87.859z M50.338,87.273l-40.156,2.652c-0.042-0.089-0.092-0.173-0.14-0.259l19.494-23.638  c0.624,0.294,1.312,0.471,2.047,0.471c0.438,0,0.853-0.077,1.256-0.186L50.95,85.775C50.661,86.227,50.446,86.729,50.338,87.273z   M56.46,84.12c-0.55-0.246-1.155-0.39-1.797-0.39c-0.558,0-1.083,0.112-1.573,0.302L35.199,64.844  c0.547-0.621,0.95-1.371,1.12-2.215l29.865,2.047c0.142,0.646,0.397,1.248,0.743,1.787L56.46,84.12z M76.915,95.302l-17.99-6.071  c0.089-0.35,0.15-0.709,0.15-1.086c0.001-0.787-0.222-1.516-0.583-2.154L68.96,68.332c0.78,0.422,1.658,0.684,2.606,0.684  c0.065,0,0.129-0.018,0.191-0.02l6.979,24.056C77.866,93.533,77.209,94.333,76.915,95.302z M82.447,93.052  c-0.305-0.167-0.627-0.303-0.975-0.384l-7.06-24.465c1.251-0.76,2.177-1.988,2.519-3.455L89.5,68.635  c0.389,0.911,1.085,1.647,1.947,2.122L82.447,93.052z M89.275,65.884L76.85,61.99c-0.354-1.24-1.111-2.307-2.146-3.022  l11.295-21.707c-1.457-0.511,0.734,0.156,1.127,0.156c0.035,0,0.068-0.01,0.104-0.01l4.317,25.589  C90.419,63.579,89.575,64.62,89.275,65.884z" fill="#000000" style="fill: rgb(0, 0, 0);"></path></g></svg>